<svg data-v-0dd9719b="" version="1.0" xmlns="http://www.w3.org/2000/svg" xmlns:xlink="http://www.w3.org/1999/xlink" width="100%" height="100%" viewBox="0 0 340.000000 250.000000" preserveAspectRatio="xMidYMid meet" color-interpolation-filters="sRGB" style="margin: auto;"> <rect data-v-0dd9719b="" x="0" y="0" width="100%" height="100%" fill="#fff" fill-opacity="1" class="background"></rect> <rect data-v-0dd9719b="" x="0" y="0" width="100%" height="100%" fill="url(#watermark)" fill-opacity="1" class="watermarklayer"></rect> <g data-v-0dd9719b="" fill="#333" class="icon-text-wrapper icon-svg-group iconsvg" transform="translate(48.51000213623047,91.58758926391602)"><g class="iconsvg-imagesvg" transform="translate(0,0)"><g><rect fill="#333" fill-opacity="0" stroke-width="2" x="0" y="0" width="60" height="66.82481873767918" class="image-rect"></rect> <svg x="0" y="0" width="60" height="66.82481873767918" filtersec="colorsb6844493748" class="image-svg-svg primary" style="overflow: visible;"><svg xmlns="http://www.w3.org/2000/svg" viewBox="0 -0.0028373277746140957 89.81000518798828 100.02556610107422"><title>资源 134</title><path d="M64.35 47.87c-.58 0-1.17 0-1.74.05.34.73.66 1.46 1 2.2a64.86 64.86 0 0 1 5.14 25.46 65.77 65.77 0 0 1-1.34 13.26L84.44 79a11.89 11.89 0 0 0 5.37-9.28v-10a33.48 33.48 0 0 0-25.46-11.85zM21.49 69a9.3 9.3 0 0 1 9.3-9.31 9.07 9.07 0 0 1 1.66.15 39.44 39.44 0 0 1 4.73-5.73 38.15 38.15 0 0 1 15.09-9.32 58 58 0 0 0-41.94-26.64L5.38 21A11.9 11.9 0 0 0 0 30.28v39.44A11.9 11.9 0 0 0 5.38 79l22 12.68a38.86 38.86 0 0 1-1.19-14.63 9.3 9.3 0 0 1-4.7-8.05z" fill="#275cde"></path><path d="M84.44 21L50.28 1.28a11.86 11.86 0 0 0-10.73 0L20.29 12.4a64 64 0 0 1 8.49 2.92 65.23 65.23 0 0 1 20.79 14 65.61 65.61 0 0 1 10.52 13.76 37.62 37.62 0 0 1 4.26-.24 38.33 38.33 0 0 1 25.46 9.64v-22.2A11.92 11.92 0 0 0 84.44 21z" fill="#0a2183"></path><path d="M37 62.08a9.31 9.31 0 0 1-5.95 16.2c-.08 1-.13 2-.13 3a33.2 33.2 0 0 0 3.26 14.39l5.33 3.07a11.84 11.84 0 0 0 10.72 0l7.87-4.54a57.76 57.76 0 0 0-3.27-44.94A33.46 33.46 0 0 0 37 62.08z" fill="#01cfff"></path></svg></svg> <!----></g></g> <g transform="translate(67,10.171161651611328)"><g data-gra="path-name" fill-rule="" class="tp-name iconsvg-namesvg" transform="translate(0,0)"><g transform="scale(1)"><g><path d="M5.38 2.41L5.38 2.41Q4.71 2.41 3.98 2.06L3.98 2.06Q3 1.61 3 1.08L3 1.08Q3 0.77 3.28 0.45L3.28 0.45Q4.29-0.94 5.06-2.48L5.06-2.48Q5.62-3.81 7.12-3.81L7.12-3.81Q7.61-3.81 8.17-3.67L8.17-3.67Q9.64-3.28 9.64-2.58L9.64-2.58Q9.64-2.44 9.58-2.34 9.53-2.23 9.46-2.1L9.46-2.1Q8.24 0.28 7.23 1.5L7.23 1.5Q6.42 2.41 5.38 2.41ZM30.87 2.34L30.87 2.34Q29.58 2.34 28.91 1.15L28.91 1.15 27.83-0.56Q27.1-1.61 26.61-2.23L26.61-2.23Q26.4-2.48 26.4-2.69L26.4-2.69Q26.4-3.25 27.55-3.63L27.55-3.63Q28.18-3.84 28.74-3.84L28.74-3.84Q29.85-3.84 30.62-2.97L30.62-2.97Q33.59 0.63 33.59 1.15L33.59 1.15Q33.59 1.26 33.52 1.41 33.45 1.57 32.33 2.03L32.33 2.03Q31.53 2.34 30.87 2.34ZM21.75 2.13L21.75 2.13Q20.29 2.13 19.97 0.8L19.97 0.8Q19.73-0.17 19.41-1.08 19.1-1.99 19.1-2.13L19.1-2.13Q19.1-2.86 20.67-3.21L20.67-3.21Q21.19-3.32 21.61-3.32L21.61-3.32Q23.01-3.32 23.5-2.2L23.5-2.2Q24.51 0.35 24.51 0.84L24.51 0.84Q24.51 1.54 22.98 1.96L22.98 1.96Q22.28 2.13 21.75 2.13ZM14.74 2.13L14.04 2.16Q12.19 2.16 12.15 0.84L12.15 0.84Q12.08 0.42 12.06-0.21 12.05-0.84 11.91-1.78L11.91-1.78 11.91-1.96Q11.91-2.93 13.79-3.14L13.79-3.14 14.21-3.14Q15.99-3.14 16.2-1.99L16.2-1.99Q16.59 0.17 16.59 1.01L16.59 1.01Q16.59 1.89 14.74 2.13L14.74 2.13ZM31.84-5.45L31.84-5.45 4.16-5.45Q2.1-5.45 2.1-6.67L2.1-6.67Q2.1-7.89 4.16-7.89L4.16-7.89 15.68-7.89 15.68-10.86 6.81-10.86Q4.89-10.86 4.89-11.94L4.89-11.94Q4.89-13.02 6.81-13.02L6.81-13.02 15.68-13.02 15.68-15.78 8.31-15.78Q6.81-15.78 6.11-16.48 5.41-17.18 5.41-17.84L5.41-17.84 5.41-25.77Q5.41-26.43 6.11-27.13 6.81-27.83 8.31-27.83L8.31-27.83 27.62-27.83Q29.12-27.83 29.82-27.13 30.52-26.43 30.52-25.77L30.52-25.77 30.52-17.84Q30.52-17.18 29.82-16.48 29.12-15.78 27.62-15.78L27.62-15.78 20.18-15.78 20.18-13.02 29.16-13.02Q31.08-13.02 31.08-11.94L31.08-11.94Q31.08-10.86 29.16-10.86L29.16-10.86 20.18-10.86 20.18-7.89 31.84-7.89Q33.9-7.89 33.9-6.67L33.9-6.67Q33.9-5.45 31.84-5.45ZM9.95-18.05L15.68-18.05 15.68-25.59 9.95-25.59Q9.74-25.59 9.74-24.55L9.74-24.55 9.74-19.1Q9.74-18.05 9.95-18.05L9.95-18.05ZM20.18-18.05L25.8-18.05Q26.01-18.05 26.01-19.1L26.01-19.1 26.01-24.55Q26.01-25.59 25.8-25.59L25.8-25.59 20.18-25.59 20.18-18.05ZM22.52-19.03L22.52-19.03Q22-19.03 21.33-19.31L21.33-19.31Q20.5-19.59 20.5-19.9L20.5-19.9 20.53-20.01Q21.23-21.4 21.93-23.22L21.93-23.22Q22.28-24.27 23.36-24.27L23.36-24.27Q23.92-24.27 24.69-23.99L24.69-23.99Q25.63-23.67 25.63-23.22L25.63-23.22Q25.63-23.12 25.56-22.98L25.56-22.98 24.79-21.44 23.92-19.8Q23.43-19.03 22.52-19.03ZM12.57-19.24L12.57-19.24Q11.91-19.24 11.77-19.73L11.77-19.73Q11.31-21.44 10.37-23.26L10.37-23.26 10.34-23.39Q10.34-23.74 11.24-24.06L11.24-24.06Q11.84-24.27 12.33-24.27L12.33-24.27Q13.3-24.27 13.83-23.39L13.83-23.39Q15.15-20.85 15.15-20.25L15.15-20.25Q15.15-20.01 14.25-19.66L14.25-19.66Q13.16-19.24 12.57-19.24ZM65.54 1.64L65.54 1.64 59.57 1.64Q54.58 1.64 54.33-1.05L54.33-1.05Q53.49-0.52 51.82 0.38L51.82 0.38Q50.84 0.84 50.07 0.84L50.07 0.84Q48.92 0.84 48.12-0.14L48.12-0.14Q47.73-0.59 47.73-0.87L47.73-0.87Q47.73-1.15 48.92-1.71L48.92-1.71Q51.61-3.04 54.23-5.03L54.23-5.03 54.23-18.44 52.13-18.44Q51.15-11.63 49.09-7.3L49.09-7.3Q46.86-2.41 42.74 0.77L42.74 0.77Q41.59 1.64 40.57 1.64L40.57 1.64Q39.49 1.64 38.58 0.63L38.58 0.63Q38.13 0.14 38.13-0.07L38.13-0.07Q38.13-0.52 39.25-1.33L39.25-1.33Q42.77-3.95 44.8-8.17L44.8-8.17Q46.65-12.15 47.52-18.44L47.52-18.44 40.19-18.44Q38.06-18.44 38.06-19.76L38.06-19.76Q38.06-21.06 40.19-21.06L40.19-21.06 47.84-21.06Q48.12-23.71 48.22-27.48L48.22-27.48Q48.29-29.02 50.39-29.02L50.39-29.02Q52.87-29.02 52.87-27.55L52.87-27.55Q52.87-25.63 52.38-21.06L52.38-21.06 67.81-21.06Q69.94-21.06 69.94-19.76L69.94-19.76Q69.94-18.44 67.81-18.44L67.81-18.44 58.73-18.44 58.73-8.97Q60.9-11 63.17-14.87L63.17-14.87Q63.79-16.06 64.98-16.06L64.98-16.06Q65.68-16.06 66.55-15.68L66.55-15.68Q67.57-15.22 67.57-14.67L67.57-14.67Q67.57-14.49 67.46-14.28L67.46-14.28Q64.04-8.69 58.73-4.26L58.73-4.26 58.73-2.76Q58.73-1.36 58.99-1.13 59.26-0.91 59.95-0.91L59.95-0.91 65.3-0.91Q65.65-0.91 65.92-1.64L65.92-1.64Q66.1-2.83 66.55-3.42L66.55-3.42Q67.15-4.33 68.09-4.33L68.09-4.33Q68.65-4.33 69.31-4.02L69.31-4.02Q70.32-3.6 70.32-2.27L70.32-2.27 70.29-1.75Q69.97-0.03 68.93 0.8 67.88 1.64 65.54 1.64ZM63.17-22.35L63.17-22.35Q62.33-22.35 61.52-23.15L61.52-23.15Q59.64-24.79 57.58-26.43L57.58-26.43Q57.26-26.68 57.26-26.96L57.26-26.96Q57.26-27.24 57.58-27.52L57.58-27.52Q58.42-28.18 59.26-28.18L59.26-28.18Q59.99-28.18 60.76-27.69L60.76-27.69Q63.1-25.98 65.19-24.27L65.19-24.27 65.58-23.92Q65.54-23.71 65.02-23.22L65.02-23.22Q64.07-22.35 63.17-22.35ZM77.66 1.54L77.66 1.54Q76.75 1.54 75.84 0.77L75.84 0.77Q75.21 0.24 75.21-0.21L75.21-0.21Q75.21-0.42 75.35-0.63L75.35-0.63Q77.94-4.54 80.21-8.83L80.21-8.83Q80.87-10.16 81.88-10.16L81.88-10.16Q82.75-10.16 83.87-9.18L83.87-9.18Q84.33-8.73 84.33-8.35L84.33-8.35Q84.33-8.17 84.26-8L84.26-8Q82.2-3.95 79.61 0.42L79.61 0.42Q78.91 1.54 77.66 1.54ZM104.09 0.38L104.09 0.38 85.3 0.38Q83.07 0.38 83.07-1.05L83.07-1.05Q83.07-2.44 85.3-2.44L85.3-2.44 92.04-2.44 92.04-23.15 87.01-23.15Q84.78-23.15 84.78-24.58L84.78-24.58Q84.78-25.98 87.01-25.98L87.01-25.98 102.34-25.98Q104.58-25.98 104.58-24.58L104.58-24.58Q104.58-23.15 102.34-23.15L102.34-23.15 96.79-23.15 96.79-2.44 104.09-2.44Q106.32-2.44 106.32-1.05L106.32-1.05Q106.32 0.38 104.09 0.38ZM80.35-13.76L80.35-13.76Q79.54-13.76 78.53-14.49L78.53-14.49Q76.47-15.89 74.9-16.62L74.9-16.62Q74.2-17.04 74.2-17.46L74.2-17.46Q74.2-17.67 74.34-17.88L74.34-17.88Q75.04-18.89 76.12-18.89L76.12-18.89Q77.48-18.89 81.74-16.27L81.74-16.27Q82.41-15.89 82.41-15.68L82.41-15.68Q82.41-15.57 81.88-14.74L81.88-14.74Q81.25-13.76 80.35-13.76ZM81.88-23.12L81.88-23.12Q81.04-23.12 80.24-23.78L80.24-23.78 79.23-24.48 78.04-25.25Q77.2-25.84 76.75-26.05L76.75-26.05Q76.16-26.43 76.16-26.82L76.16-26.82Q76.16-27.06 76.36-27.31L76.36-27.31Q77.13-28.28 78.15-28.28L78.15-28.28Q78.77-28.28 79.54-27.86L79.54-27.86Q84.29-25.18 84.29-24.79L84.29-24.79Q84.29-24.69 83.77-23.99L83.77-23.99Q83.1-23.12 81.88-23.12ZM125.98 2.51L125.98 2.51Q123.61 2.51 123.61 0.98L123.61 0.98 123.61-9.81Q120.57-5.38 114.53-1.26L114.53-1.26Q113.52-0.66 112.64-0.66L112.64-0.66Q112.5-0.66 111.93-0.73 111.35-0.8 110.62-1.68L110.62-1.68Q110.13-2.23 110.13-2.55L110.13-2.55Q110.13-2.9 111.32-3.53L111.32-3.53Q117.95-7.68 122.25-14.35L122.25-14.35 112.47-14.35Q110.2-14.35 110.2-15.78L110.2-15.78Q110.2-17.21 112.47-17.21L112.47-17.21 123.61-17.21 123.61-23.39Q116.14-22.56 114.35-22.56L114.35-22.56Q112.5-22.56 112.09-23.85L112.09-23.85 112.05-24.13Q112.05-25.04 114.22-25.21L114.22-25.21Q127.41-26.33 134.5-28.25L134.5-28.25Q134.99-28.39 135.45-28.39L135.45-28.39Q136-28.39 136.49-28.16 136.98-27.93 137.54-27.34L137.54-27.34Q137.96-26.92 137.96-26.57L137.96-26.57Q137.96-25.94 136.67-25.59L136.67-25.59Q132.93-24.72 128.36-24.02L128.36-24.02 128.36-17.21 139.6-17.21Q141.87-17.21 141.87-15.78L141.87-15.78Q141.87-14.35 139.6-14.35L139.6-14.35 129.72-14.35Q134.4-7.51 140.72-3.67L140.72-3.67Q141.94-3 141.94-2.65L141.94-2.65Q141.94-2.34 141.42-1.75L141.42-1.75Q140.54-0.73 139.39-0.73L139.39-0.73Q138.48-0.73 137.51-1.33L137.51-1.33Q131.67-5.24 128.36-9.95L128.36-9.95 128.36 0.98Q128.36 2.51 125.98 2.51ZM158.77 2.44L158.77 2.44Q156.05 2.44 155.59 1.01L155.59 1.01Q155.52 0.84 155.52 0.66L155.52 0.66Q155.52-0.35 158.14-0.35L158.14-0.35 158.46-0.35Q160.24-0.35 160.36-0.45 160.48-0.56 160.48-12.61L160.48-12.61Q153.04-12.61 152.24-12.57L152.24-12.57 151.23-12.54Q148.02-12.54 148.02-14.32L148.02-14.32Q148.02-14.84 148.4-15.75L148.4-15.75Q149.38-18.26 149.8-23.99L149.8-23.99Q149.94-26.57 152.8-26.68L152.8-26.68Q165.44-27.13 172.07-28.49L172.07-28.49Q172.49-28.6 172.84-28.6L172.84-28.6Q174.1-28.6 174.83-27.38L174.83-27.38Q175.18-26.75 175.18-26.64L175.18-26.64Q175.08-26.26 173.78-25.98L173.78-25.98Q166.24-24.44 154.34-24.13L154.34-24.13Q153.92-19.69 152.9-15.43L152.9-15.43 160.48-15.43 160.48-20.57Q160.48-22 162.79-22L162.79-22Q165.06-22 165.06-20.57L165.06-20.57 165.06-15.43 175.01-15.43Q177.24-15.43 177.24-14L177.24-14Q177.24-12.61 175.04-12.61L175.04-12.61 165.06-12.61 165.06-1.29Q165.06-0.03 164.74 0.63L164.74 0.63Q163.9 2.34 158.77 2.44ZM148.75 0.03L148.75 0.03Q147.88 0.03 146.9-0.73L146.9-0.73Q146.16-1.29 146.16-1.5L146.16-1.5Q146.16-1.71 146.69-2.23L146.69-2.23Q149.41-4.99 151.33-8.17L151.33-8.17Q152.03-9.32 153.29-9.32L153.29-9.32Q153.88-9.32 154.61-9.08L154.61-9.08Q155.84-8.66 155.84-8.07L155.84-8.07Q155.84-7.86 155.7-7.65L155.7-7.65Q153.25-3.91 150.56-0.91L150.56-0.91Q149.69 0.03 148.75 0.03ZM175.46-0.07L175.46-0.07Q175.18-0.07 174.57-0.19 173.96-0.31 173.47-1.12L173.47-1.12Q171.38-4.47 168.79-7.68L168.79-7.68Q168.62-7.89 168.62-8.1L168.62-8.1Q168.62-8.55 169.59-8.94L169.59-8.94Q170.33-9.25 170.92-9.25L170.92-9.25Q171.97-9.25 172.7-8.42L172.7-8.42Q175.77-4.96 177.9-1.75L177.9-1.75 178.08-1.36Q177.9-1.01 176.65-0.35L176.65-0.35Q176.05-0.07 175.46-0.07Z" transform="translate(-2.0999999046325684, 29.020000457763672)"></path></g> <!----> <!----> <!----> <!----> <!----> <!----> <!----></g></g> <g data-gra="path-slogan" fill-rule="" class="tp-slogan iconsvg-slogansvg" fill="#333" transform="translate(26.909996032714844,37.53000068664551)"><!----> <!----> <g transform="scale(1, 1)"><g transform="scale(1)"><path d="M2.06-5.06L6.56-5.06L6.56-8.58L7.73-8.58L7.73 0L6.56 0L6.56-3.98L2.06-3.98L2.06 0L0.89 0L0.89-8.58L2.06-8.58L2.06-5.06ZM10.83-1.03L15.98-1.03L15.98 0L9.66 0L9.66-8.58L15.89-8.58L15.89-7.59L10.83-7.59L10.83-4.92L15.52-4.92L15.52-3.89L10.83-3.89L10.83-1.03ZM17.67-8.58L18.84-8.58L18.84 0L17.67 0L17.67-8.58ZM20.81-8.58L21.98-8.58L21.98-1.03L26.34-1.03L26.34 0L20.81 0L20.81-8.58ZM34.27-4.27L34.27-4.27Q34.08-7.64 31.27-7.83L31.27-7.83Q28.41-7.69 28.27-4.27L28.27-4.27Q28.41-0.94 31.27-0.80L31.27-0.80Q34.08-0.98 34.27-4.27ZM35.44-4.27L35.44-4.27Q35.16 0 31.27 0.14L31.27 0.14Q27.33 0 27.05-4.27L27.05-4.27Q27.28-8.72 31.27-8.81L31.27-8.81Q35.16-8.67 35.44-4.27ZM38.20-8.58L42.52-1.64L42.52-8.58L43.64-8.58L43.64 0L42.33 0L37.97-6.94L37.92-6.94L37.92 0L36.80 0L36.80-8.58L38.20-8.58ZM51.84-3.61L49.22-3.61L49.22-4.59L52.97-4.59L52.97 0L52.22 0L51.94-1.08Q50.95 0.09 49.13 0.14L49.13 0.14Q47.39 0.14 46.45-0.75L46.45-0.75Q45.05-2.06 45.09-4.36L45.09-4.36Q45.42-8.63 49.17-8.81L49.17-8.81Q52.36-8.63 52.83-6L52.83-6L51.70-6Q51.23-7.78 49.13-7.83L49.13-7.83Q46.45-7.64 46.31-4.31L46.31-4.31Q46.31-0.75 49.17-0.75L49.17-0.75Q50.20-0.75 50.95-1.31L50.95-1.31Q51.89-2.06 51.84-3.61L51.84-3.61ZM54.05-1.92L54.05-2.77L55.13-2.77L55.13-2.16Q55.13-0.75 56.44-0.75L56.44-0.75Q57.80-0.75 57.80-2.25L57.80-2.25L57.80-8.58L58.97-8.58L58.97-2.30Q58.92 0.09 56.48 0.14L56.48 0.14Q54.19 0.09 54.05-1.92L54.05-1.92ZM60.94-8.58L62.11-8.58L62.11 0L60.94 0L60.94-8.58ZM69.75 0L68.91-2.48L65.44-2.48L64.55 0L63.38 0L66.61-8.58L67.92-8.58L71.02 0L69.75 0ZM67.17-7.31L65.81-3.52L68.48-3.52L67.22-7.31L67.17-7.31ZM73.45-8.58L77.77-1.64L77.77-8.58L78.89-8.58L78.89 0L77.58 0L73.22-6.94L73.17-6.94L73.17 0L72.05 0L72.05-8.58L73.45-8.58ZM87.09-3.61L84.47-3.61L84.47-4.59L88.22-4.59L88.22 0L87.47 0L87.19-1.08Q86.20 0.09 84.38 0.14L84.38 0.14Q82.64 0.14 81.70-0.75L81.70-0.75Q80.30-2.06 80.34-4.36L80.34-4.36Q80.67-8.63 84.42-8.81L84.42-8.81Q87.61-8.63 88.08-6L88.08-6L86.95-6Q86.48-7.78 84.38-7.83L84.38-7.83Q81.70-7.64 81.56-4.31L81.56-4.31Q81.56-0.75 84.42-0.75L84.42-0.75Q85.45-0.75 86.20-1.31L86.20-1.31Q87.14-2.06 87.09-3.61L87.09-3.61ZM94.50-5.06L99-5.06L99-8.58L100.17-8.58L100.17 0L99 0L99-3.98L94.50-3.98L94.50 0L93.33 0L93.33-8.58L94.50-8.58L94.50-5.06ZM103.27-1.03L108.42-1.03L108.42 0L102.09 0L102.09-8.58L108.33-8.58L108.33-7.59L103.27-7.59L103.27-4.92L107.95-4.92L107.95-3.89L103.27-3.89L103.27-1.03ZM109.92-8.58L111.09-8.58L111.09-1.03L115.45-1.03L115.45 0L109.92 0L109.92-8.58ZM117.89-1.03L123.05-1.03L123.05 0L116.72 0L116.72-8.58L122.95-8.58L122.95-7.59L117.89-7.59L117.89-4.92L122.58-4.92L122.58-3.89L117.89-3.89L117.89-1.03Z" transform="translate(-0.890625, 8.8125)"></path></g></g></g></g></g><defs v-gra="od"></defs></svg>